# xmcd CD database file
#
# Track frame offsets:
#	150
#	3953
#	18224
#	22159
#	43879
#	65720
#	77742
#	96284
#	98929
#	125160
#	147196
#	158941
#	181209
#	202674
#	228214
#	251720
#	253503
#
# Disc length: 3566 seconds
#
# Revision: 0
# Processed by: cddbd v1.5.1PL0 Copyright (c) Steve Scherf et al.
# Submitted via: CDex 1.51
#
DISCID=e20dec11
DTITLE=日本ファルコム/SOUND TEAM J.D.K. - 風の伝説ザナドゥ THE LEGEND OF XANADU　DRAGON SLAYER VIII from PCEngine
DYEAR=1994
DGENRE=Game
TTITLE0=風の中で（警告トラック）
TTITLE1=Data Track（再生不可）
TTITLE2=会話
TTITLE3=ダルダンディス
TTITLE4=暗黒の翼
TTITLE5=KLEENE
TTITLE6=自由の翼
TTITLE7=オープニング（効果音）
TTITLE8=プロローグ（会話）
TTITLE9=伝説の始まり（会話）
TTITLE10=風の伝説
TTITLE11=邪竜復活（会話）
TTITLE12=兄と弟〜アイネアスの血 - ソフィア - 孤高の翼（会話）
TTITLE13=エンディング(会話)
TTITLE14=LIKE A WIND
TTITLE15=風の中で（バージョン違いによる警告）
TTITLE16=Data Track（再生不可）
EXTD=YEAR: 1994
EXTT0=
EXTT1=
EXTT2=
EXTT3=
EXTT4=
EXTT5=
EXTT6=
EXTT7=
EXTT8=
EXTT9=
EXTT10=
EXTT11=
EXTT12=
EXTT13=
EXTT14=
EXTT15=
EXTT16=
PLAYORDER=
